<?xml version="1.0" encoding="UTF-8" standalone="no"?>
<!DOCTYPE svg PUBLIC "-//W3C//DTD SVG 1.1//EN" "http://www.w3.org/Graphics/SVG/1.1/DTD/svg11.dtd">
<svg width="100%" height="100%" viewBox="0 0 512 512" version="1.1" xmlns="http://www.w3.org/2000/svg" xmlns:xlink="http://www.w3.org/1999/xlink" xml:space="preserve" xmlns:serif="http://www.serif.com/" style="fill-rule:evenodd;clip-rule:evenodd;stroke-linejoin:round;stroke-miterlimit:2;">
    <g>
        <path d="M511.414,217.728C509.512,208.694 503.172,201.225 494.562,197.872L464.365,186.136L464.365,217.182L470.083,219.405C472.663,220.413 474.566,222.655 475.131,225.358C475.696,228.07 474.868,230.896 472.908,232.855L279.14,426.609C275.306,430.433 269.579,431.639 264.52,429.68L221.456,412.932L221.456,443.978L251.682,455.733C268.862,462.411 288.36,458.314 301.397,445.279L503.991,242.689C510.519,236.161 513.317,226.77 511.414,217.728Z" style="fill:rgb(211,249,255);fill-rule:nonzero;"/>
        <path d="M30.914,299.684C32.27,280.789 38.337,256.035 59.38,257.203L251.58,331.954C268.808,338.652 288.362,334.507 301.398,321.396L487.169,134.405C493.669,127.867 496.438,118.486 494.526,109.472C492.614,100.449 486.284,92.998 477.694,89.663L286.666,15.374C269.438,8.676 249.875,12.821 236.848,25.933L21.646,242.538C4.625,256.545 0,282.664 0,305.863C0,329.063 1.545,356.906 27.844,367.729L21.646,366.278L79.588,388.81L79.588,368.068C79.588,364.696 80.008,361.4 80.695,358.188L41.755,343.041C29.37,338.35 29.36,321.499 30.914,299.684Z" style="fill:rgb(211,249,255);fill-rule:nonzero;"/>
        <path d="M111.048,352.658C106.96,356.765 104.667,362.303 104.667,368.068L104.667,464.144L145.49,455.403L196.378,499.786L196.378,403.738C196.378,397.945 198.676,392.407 202.764,388.319L219.036,372.043L127.33,336.381L111.048,352.658Z" style="fill:rgb(211,249,255);fill-rule:nonzero;"/>
    </g>
</svg>
